<?xml version="1.0" standalone="no"?><!DOCTYPE svg PUBLIC "-//W3C//DTD SVG 1.1//EN" "http://www.w3.org/Graphics/SVG/1.1/DTD/svg11.dtd"><svg class="icon" height="512" viewBox="0 0 1024 1024" version="1.1" xmlns="http://www.w3.org/2000/svg"><path d="M355.2403911111111 333.3461333333334c-10.103466666666668-70.29304888888889-11.16615111111111-135.3261511111111-0.5324800000000001-193.66570666666667 141.44739555555554-86.54961777777777 208.44771555555553 15.303111111111109 316.3943822222222 0 8.508302222222222 60.73002666666666 5.3168355555555555 142.5009777777778-4.787768888888889 190.79850666666664-6.378382222222221 32.037546666666664-21.26848 60.72888888888888-42.00789333333333 83.68241777777779-29.24544 32.03868444444444-69.12682666666666 52.1216-113.79598222222222 52.1216-44.66574222222222 0-85.0796088888889-20.082915555555555-113.79370666666665-52.1216-20.206933333333335-21.997795555555555-34.56455111111111-49.73340444444444-41.476551111111114-80.81521777777776z m-71.2544711111111 549.9164444444444H750.8650666666667l-27.651413333333334 36.34176H306.85070222222225l-22.86478222222222-36.34176z m491.8692977777778-312.7341511111111l51.58115555555556 175.97212444444446c18.078151111111108 61.684622222222224 9.572124444444444 105.67907555555556-69.66044444444445 105.67907555555556h-17.547946666666668V610.2163911111111H530.7164444444445l60.089457777777774-124.32725333333335 21.80096-15.303111111111109 118.05013333333333 26.30087111111111 5.849315555555555 1.4347377777777777 3.7216711111111107 4.304213333333333c17.547946666666668 20.560782222222223 28.71523555555555 43.51544888888889 34.56227555555555 68.37930666666666l1.0649600000000001-0.4767288888888888zM297.80992000000003 852.1796266666668h-31.904426666666666c-78.70008888888889 0-87.20725333333333-43.99445333333333-69.65930666666667-105.67907555555556l51.57888-175.97212444444446c6.914275555555555-29.170346666666667 21.80096-52.12387555555555 43.071715555555556-69.81745777777778l3.1914666666666665-2.391608888888889 4.254151111111111-0.9557333333333332 113.79370666666665-26.299733333333332 22.33344 15.301973333333333 65.40629333333332 124.32952888888889H297.80992000000003v241.4842311111111z" /></svg>